<svg width="285" height="200" viewBox="0 0 285 200" fill="none" xmlns="http://www.w3.org/2000/svg">
<g filter="url(#filter0_i_477_617)">
<path d="M0 8C0 3.58173 3.58172 0 8 0H277C281.418 0 285 3.58172 285 8V200H0V8Z" fill="#292929"/>
<path d="M197.964 79.1245C198.32 79.6943 198.777 80.2113 199.318 80.6563C200.688 81.7717 202.152 82.7958 203.698 83.7198L205.95 85.1444C207.322 86.0481 208.728 86.8906 209.942 87.5799L212.422 89.0044L212.95 89.3108C214.709 90.2758 216.327 91.2255 217.98 92.2058C225.016 96.3876 228.534 103.219 227.25 109.607C226.531 112.895 224.649 115.905 221.868 118.215C218.821 120.733 215.075 122.517 210.998 123.393C206.659 124.275 202.207 124.666 197.753 124.557H195.695C194.921 124.557 194.147 124.557 193.373 124.557C188.163 124.643 182.953 124.377 177.79 123.76C177.367 123.702 176.97 123.548 176.638 123.313C176.306 123.078 176.051 122.771 175.899 122.422C175.747 122.074 175.704 121.697 175.773 121.329C175.843 120.962 176.023 120.617 176.294 120.329L187.358 108.565C187.595 108.321 187.892 108.125 188.226 107.993C188.561 107.86 188.925 107.794 189.293 107.799H193.303H195.871C199.311 107.953 202.759 107.748 206.143 107.187C206.756 107.045 207.346 106.839 207.902 106.574C207.656 106.343 207.385 106.132 207.093 105.946C205.58 105.042 204.015 104.154 202.502 103.296C200.989 102.438 199.6 101.657 198.105 100.768C196.61 99.88 195.537 99.2367 194.429 98.5014C193.813 98.0878 193.162 97.6896 192.529 97.276C190.564 96.0951 188.679 94.8165 186.883 93.4466C186.783 95.4094 186.38 97.3517 185.687 99.2213L185.388 99.9566C181.558 107.952 174.51 114.455 165.565 118.246C154.097 123.01 137.229 123.469 125.251 122.305C124.932 122.277 124.623 122.193 124.342 122.059C124.06 121.925 123.813 121.744 123.613 121.526C123.413 121.308 123.265 121.057 123.178 120.788C123.091 120.52 123.066 120.239 123.105 119.962V119.625C123.156 119.221 123.34 118.838 123.633 118.522L134.591 106.88C134.816 106.64 135.101 106.446 135.423 106.313C135.746 106.181 136.099 106.113 136.455 106.114H136.614C145.197 106.114 152.707 105.042 157.245 103.158C161.168 101.519 166.04 97.6896 167.342 94.1052C167.591 93.618 167.704 93.0859 167.671 92.5531C167.637 92.0203 167.458 91.5021 167.148 91.0417C166.656 90.2452 164.844 88.0701 158.864 84.7921C157.316 83.9343 155.592 83.0765 153.745 82.2493C150.227 80.7176 148.469 80.5644 147.273 81.9123L144.195 85.3129C137.81 92.405 131.196 99.7421 124.161 106.834C123.316 107.677 122.402 108.519 121.68 109.377C119.014 112.254 116.141 114.981 113.079 117.541L111.461 118.782C105.804 123.045 98.556 125.365 91.0755 125.307H89.8969C87.6055 125.237 85.3267 124.981 83.09 124.542C78.5129 123.614 74.0956 122.167 69.951 120.237C66.5885 118.694 63.3293 116.986 60.1891 115.121C59.5032 114.708 58.7293 114.233 57.9202 113.697C51.1836 109.316 42.8288 102.07 41.2282 92.3896C40.7385 89.192 41.039 85.9401 42.1098 82.8519C43.1807 79.7637 44.997 76.9104 47.4371 74.4833C52.2759 69.5089 58.5378 65.736 65.589 63.5464C71.6775 61.6277 78.0515 60.4825 84.5148 60.1459C95.807 59.4413 117.635 61.5092 118.55 61.6776C118.986 61.7151 119.402 61.8564 119.753 62.086C120.104 62.3156 120.375 62.6248 120.537 62.9797C120.7 63.3308 120.752 63.7137 120.687 64.0883C120.622 64.4628 120.443 64.8153 120.168 65.1088L109.262 76.5818C109.023 76.8361 108.719 77.0379 108.374 77.1709C108.028 77.304 107.652 77.3645 107.275 77.3477C94.7339 76.8422 69.1596 77.8072 62.2295 85.1137C61.4907 85.7418 60.926 86.5084 60.5785 87.3551C60.2311 88.2019 60.1099 89.1064 60.2244 90.0001C60.752 93.1708 64.3579 97.1228 69.8808 100.6L70.9713 101.259C74.2637 103.261 77.7542 105.004 81.4015 106.467C89.1055 109.53 94.5405 109.331 98.9906 106.022C101.838 103.759 104.473 101.3 106.87 98.6699C107.68 97.8274 108.629 96.8624 109.544 95.928C116.175 89.2495 122.63 82.1421 128.892 75.1879L129.684 74.2994L132.111 71.6035C134.54 68.8522 137.788 66.7331 141.503 65.4764H141.609C146.839 63.902 152.535 63.9616 157.72 65.6449C159.381 66.1205 160.998 66.7043 162.557 67.3912C165.314 68.6362 167.996 70.0012 170.595 71.481C173.506 73.1401 176.227 75.038 178.722 77.1485C179.087 74.5671 180.168 72.1017 181.87 69.9645C186.76 63.6843 194.411 60.6054 204.595 60.7739C208.147 60.8781 211.679 61.2678 215.149 61.938C218.666 62.5661 221.938 63.3626 224.629 64.0059C226.599 64.4808 228.34 64.8944 229.906 65.1854C230.31 65.2654 230.683 65.4341 230.991 65.6754C231.299 65.9167 231.531 66.2226 231.665 66.564C231.802 66.903 231.836 67.2669 231.766 67.621C231.695 67.975 231.521 68.3073 231.26 68.5859L221.234 79.2317C220.936 79.5455 220.54 79.7775 220.094 79.8998C219.647 80.0221 219.17 80.0294 218.719 79.921C213.934 78.6279 208.994 77.8159 203.997 77.5008C199.793 77.4549 198.457 78.5578 197.964 79.1245Z" fill="#E3E3E3"/>
<path d="M97.8472 91.9C97.8575 93.908 96.9915 95.8445 95.4244 97.3175C93.8572 98.7906 91.706 99.6901 89.4061 99.8342C87.1062 99.9782 84.8293 99.356 83.0363 98.0934C81.2432 96.8308 80.0679 95.0222 79.7482 93.0335C79.6921 92.6576 79.6626 92.279 79.6602 91.9C79.657 89.8694 80.5496 87.9153 82.1536 86.4415C83.7576 84.9677 85.9503 84.0868 88.2788 83.9807H88.7538C91.1655 83.9807 93.4785 84.8151 95.1839 86.3002C96.8893 87.7854 97.8472 89.7996 97.8472 91.9Z" fill="#0A4FE8"/>
<path d="M61.2443 132.798C61.5536 132.324 62.0111 131.937 62.5635 131.68C63.1001 131.415 63.7053 131.272 64.3224 131.266C65.0368 131.257 65.739 131.427 66.3451 131.757C66.9442 132.076 67.4028 132.562 67.6467 133.135H66.2395C66.0691 132.83 65.8002 132.574 65.4656 132.4C65.1139 132.237 64.721 132.152 64.3224 132.155C63.8797 132.148 63.4428 132.243 63.0559 132.431C62.6923 132.625 62.3947 132.9 62.1941 133.227C61.9761 133.602 61.8674 134.017 61.8775 134.437C61.8659 134.857 61.9747 135.273 62.1941 135.647C62.3845 135.981 62.6845 136.258 63.0559 136.444C63.438 136.643 63.8772 136.744 64.3224 136.735C64.722 136.745 65.1172 136.661 65.4656 136.49C65.8106 136.327 66.083 136.068 66.2395 135.755H67.6467C67.4028 136.328 66.9442 136.814 66.3451 137.133C65.739 137.463 65.0368 137.633 64.3224 137.623C63.7046 137.622 63.0979 137.48 62.5635 137.21C62.0104 136.947 61.5533 136.554 61.2443 136.076C60.9065 135.581 60.7358 135.013 60.7518 134.437C60.7413 133.862 60.9117 133.295 61.2443 132.798Z" fill="#E3E3E3"/>
<path d="M73.311 131.726C73.8615 131.971 74.3194 132.348 74.6301 132.814C74.9579 133.323 75.122 133.9 75.1051 134.483C75.1264 135.058 74.9618 135.625 74.6301 136.122C74.3233 136.586 73.8638 136.96 73.311 137.194C72.6835 137.449 71.9976 137.574 71.3058 137.562H68.9841V131.343H71.3058C71.999 131.336 72.6849 131.467 73.311 131.726ZM73.311 136.138C73.5463 135.916 73.727 135.655 73.8419 135.371C73.9569 135.086 74.0038 134.784 73.9794 134.483C74.0019 134.175 73.9545 133.867 73.8398 133.575C73.7251 133.283 73.5453 133.014 73.311 132.783C73.0563 132.573 72.7542 132.412 72.4242 132.309C72.0942 132.206 71.7435 132.164 71.3938 132.186H70.2329V136.781H71.3938C71.7326 136.786 72.069 136.731 72.3832 136.621C72.6974 136.51 72.9829 136.346 73.2229 136.138H73.311Z" fill="#E3E3E3"/>
<path d="M77.2156 137.409C76.8536 137.279 76.5422 137.061 76.3185 136.781C76.0928 136.51 75.9755 136.181 75.9845 135.846H77.2332C77.2574 136.099 77.3891 136.334 77.6025 136.505C77.7271 136.6 77.8724 136.672 78.0296 136.716C78.1867 136.761 78.3524 136.778 78.5172 136.766C78.8522 136.789 79.1851 136.701 79.4494 136.52C79.5589 136.439 79.647 136.338 79.7077 136.224C79.7684 136.111 79.8002 135.987 79.8011 135.862C79.8093 135.671 79.7339 135.485 79.5901 135.341C79.4388 135.21 79.2597 135.106 79.0625 135.035L78.1303 134.79C77.7412 134.705 77.3592 134.598 76.9869 134.468C76.6667 134.346 76.3955 134.144 76.2075 133.888C76.0196 133.631 75.9235 133.332 75.9316 133.028C75.9235 132.691 76.0341 132.359 76.2483 132.078C76.4598 131.804 76.7597 131.591 77.1102 131.466C77.5168 131.318 77.9538 131.245 78.3941 131.251C79.0249 131.215 79.6496 131.378 80.153 131.711C80.378 131.85 80.5621 132.034 80.6905 132.247C80.8188 132.459 80.8876 132.696 80.8916 132.936H79.6077C79.5676 132.71 79.4368 132.504 79.2384 132.354C78.9776 132.192 78.6615 132.111 78.3413 132.124C78.0463 132.115 77.756 132.191 77.5147 132.339C77.4091 132.418 77.3256 132.517 77.2708 132.628C77.2159 132.74 77.191 132.861 77.198 132.982C77.1914 133.156 77.2605 133.326 77.3914 133.457C77.5407 133.579 77.7134 133.678 77.9016 133.748C78.1763 133.842 78.4584 133.919 78.7458 133.978C79.2207 134.1 79.6078 134.207 79.9068 134.315C80.2069 134.435 80.467 134.619 80.663 134.851C80.89 135.121 81.002 135.451 80.9797 135.785C80.9759 136.104 80.8725 136.417 80.6806 136.689C80.4752 136.977 80.1832 137.21 79.8363 137.363C79.4248 137.534 78.9729 137.618 78.5172 137.608C78.0724 137.617 77.63 137.55 77.2156 137.409Z" fill="#E3E3E3"/>
<path d="M85.8866 137.409C85.5246 137.279 85.2132 137.061 84.9896 136.781C84.7638 136.51 84.6463 136.181 84.6553 135.846H85.9042C85.9284 136.099 86.0601 136.334 86.2735 136.505C86.3981 136.6 86.5432 136.672 86.7004 136.716C86.8575 136.761 87.0235 136.778 87.1882 136.766C87.5225 136.783 87.8531 136.696 88.1205 136.52C88.2299 136.439 88.3178 136.338 88.3785 136.224C88.4392 136.111 88.4712 135.987 88.4722 135.862C88.4804 135.671 88.4049 135.485 88.2611 135.341C88.1098 135.21 87.9305 135.106 87.7333 135.035L86.9243 134.79C86.5409 134.705 86.1647 134.598 85.7986 134.468C85.4784 134.346 85.2069 134.144 85.019 133.888C84.831 133.631 84.7351 133.332 84.7433 133.028C84.7352 132.691 84.8455 132.359 85.0598 132.078C85.2712 131.804 85.5713 131.591 85.9218 131.466C86.3285 131.318 86.7655 131.245 87.2058 131.251C87.8365 131.215 88.4612 131.378 88.9647 131.711C89.1821 131.856 89.3606 132.041 89.4882 132.253C89.6157 132.464 89.6891 132.697 89.7033 132.936H88.4017C88.3887 132.822 88.3493 132.712 88.2858 132.612C88.2223 132.512 88.1361 132.424 88.0324 132.354C87.7739 132.199 87.4672 132.115 87.153 132.115C86.8388 132.115 86.5321 132.199 86.2735 132.354C86.168 132.433 86.0847 132.532 86.0298 132.644C85.975 132.755 85.9499 132.876 85.9568 132.997C85.9502 133.171 86.0195 133.341 86.1505 133.472C86.2961 133.598 86.4695 133.697 86.6604 133.763C86.9351 133.857 87.2173 133.934 87.5047 133.993C87.9796 134.116 88.3666 134.223 88.6656 134.33C88.9657 134.45 89.2261 134.635 89.422 134.866C89.649 135.136 89.7608 135.466 89.7385 135.8C89.7347 136.12 89.6315 136.432 89.4396 136.704C89.2342 136.992 88.942 137.225 88.5952 137.378C88.1837 137.549 87.7317 137.633 87.276 137.623C86.8006 137.638 86.3271 137.565 85.8866 137.409Z" fill="#E3E3E3"/>
<path d="M92.905 132.784C93.5212 132.509 94.2367 132.459 94.8958 132.642C95.5548 132.826 96.1038 133.229 96.4228 133.764C96.6604 134.172 96.781 134.624 96.7745 135.081C96.7791 135.543 96.6586 136 96.4228 136.414C96.2018 136.787 95.867 137.099 95.4553 137.318C95.0469 137.532 94.5779 137.644 94.1009 137.639C93.7062 137.643 93.3158 137.569 92.9578 137.425C92.6392 137.282 92.3576 137.084 92.1309 136.843V139.906H90.9702V132.63H92.1309V133.366C92.3408 133.128 92.6042 132.93 92.905 132.784ZM95.297 134.193C95.1521 133.959 94.9321 133.767 94.6639 133.641C94.2668 133.46 93.8054 133.418 93.3739 133.524C92.9424 133.629 92.5733 133.874 92.342 134.208C92.18 134.483 92.0955 134.787 92.0955 135.096C92.0955 135.405 92.18 135.71 92.342 135.985C92.4855 136.227 92.7051 136.429 92.9752 136.567C93.2329 136.694 93.5234 136.763 93.8196 136.766C94.1184 136.764 94.4106 136.69 94.6639 136.552C94.9378 136.418 95.1587 136.215 95.297 135.97C95.4591 135.695 95.5435 135.39 95.5435 135.081C95.5435 134.772 95.4591 134.468 95.297 134.193Z" fill="#E3E3E3"/>
<path d="M97.7592 133.763C97.9805 133.395 98.3154 133.087 98.7265 132.875C99.1287 132.661 99.5919 132.549 100.063 132.553C100.472 132.544 100.877 132.623 101.242 132.783C101.552 132.916 101.823 133.11 102.033 133.35V132.63H103.212V137.562H102.033V136.827C101.817 137.071 101.541 137.27 101.224 137.409C100.858 137.565 100.454 137.644 100.046 137.639C99.5745 137.641 99.1118 137.53 98.7089 137.317C98.3025 137.098 97.9738 136.785 97.7592 136.413C97.5154 136.002 97.3942 135.544 97.4073 135.081C97.3918 134.622 97.5131 134.169 97.7592 133.763ZM101.787 134.208C101.642 133.97 101.423 133.773 101.154 133.641C100.906 133.505 100.619 133.436 100.327 133.442C100.029 133.434 99.7357 133.503 99.4829 133.641C99.2147 133.767 98.9947 133.959 98.8498 134.192C98.6877 134.467 98.6031 134.772 98.6031 135.081C98.6031 135.39 98.6877 135.694 98.8498 135.969C98.9881 136.215 99.209 136.418 99.4829 136.551C99.7362 136.689 100.028 136.763 100.327 136.766C100.629 136.764 100.925 136.69 101.182 136.553C101.44 136.415 101.649 136.218 101.787 135.984C101.949 135.709 102.034 135.405 102.034 135.096C102.034 134.787 101.949 134.482 101.787 134.208Z" fill="#E3E3E3"/>
<path d="M104.619 133.763C104.837 133.387 105.18 133.077 105.604 132.875C106.036 132.656 106.529 132.544 107.029 132.553C107.654 132.518 108.274 132.669 108.788 132.982C109.251 133.275 109.576 133.705 109.702 134.192H108.436C108.344 133.963 108.172 133.764 107.943 133.625C107.632 133.451 107.259 133.378 106.892 133.42C106.525 133.462 106.187 133.616 105.938 133.855C105.663 134.225 105.517 134.655 105.517 135.096C105.517 135.536 105.663 135.967 105.938 136.337C106.076 136.482 106.251 136.598 106.45 136.675C106.648 136.753 106.864 136.789 107.081 136.781C107.373 136.802 107.664 136.738 107.909 136.599C108.154 136.461 108.339 136.255 108.436 136.015H109.702C109.545 136.489 109.218 136.907 108.77 137.21C108.258 137.526 107.637 137.677 107.011 137.639C106.514 137.644 106.023 137.539 105.586 137.332C105.166 137.119 104.824 136.805 104.601 136.428C104.371 136.013 104.251 135.557 104.251 135.096C104.251 134.634 104.371 134.179 104.601 133.763H104.619Z" fill="#E3E3E3"/>
<path d="M115.858 135.479H111.549C111.57 135.841 111.753 136.182 112.059 136.428C112.36 136.669 112.759 136.795 113.167 136.781C113.444 136.797 113.719 136.74 113.958 136.617C114.197 136.494 114.387 136.311 114.504 136.091H115.77C115.599 136.539 115.274 136.93 114.838 137.21C114.35 137.508 113.763 137.659 113.167 137.639C112.659 137.642 112.157 137.537 111.707 137.332C111.285 137.115 110.939 136.803 110.704 136.428C110.462 136.016 110.335 135.559 110.335 135.096C110.335 134.632 110.462 134.176 110.704 133.763C110.922 133.387 111.265 133.077 111.689 132.875C112.14 132.654 112.65 132.543 113.167 132.553C113.664 132.549 114.154 132.655 114.591 132.859C115.005 133.06 115.347 133.357 115.577 133.717C115.898 134.259 116.004 134.879 115.875 135.479H115.858ZM114.679 134.652C114.684 134.481 114.645 134.312 114.566 134.155C114.487 133.999 114.37 133.86 114.222 133.748C113.903 133.525 113.505 133.406 113.096 133.411C112.713 133.4 112.34 133.521 112.059 133.748C111.768 133.985 111.587 134.306 111.549 134.652H114.679Z" fill="#E3E3E3"/>
<path d="M120.995 138.573H119.834V130.393H120.995V138.573Z" fill="#E3E3E3"/>
<path d="M130.105 134.897C130.371 135.177 130.515 135.53 130.51 135.893C130.516 136.197 130.418 136.495 130.228 136.75C130.02 137.011 129.734 137.217 129.402 137.348C129.014 137.495 128.594 137.568 128.17 137.562H125.303V131.343H128.03C128.459 131.334 128.885 131.407 129.278 131.558C129.6 131.683 129.874 131.885 130.07 132.14C130.259 132.378 130.358 132.662 130.351 132.952C130.359 133.272 130.241 133.586 130.017 133.84C129.786 134.086 129.482 134.271 129.138 134.376C129.523 134.439 129.868 134.625 130.105 134.897ZM126.482 133.963H127.924C128.245 133.98 128.562 133.899 128.821 133.733C128.934 133.655 129.024 133.555 129.083 133.44C129.141 133.325 129.166 133.199 129.155 133.074C129.164 132.949 129.139 132.824 129.081 132.709C129.022 132.595 128.933 132.494 128.821 132.416C128.562 132.25 128.245 132.169 127.924 132.186H126.482V133.963ZM128.997 136.49C129.109 136.402 129.198 136.292 129.255 136.171C129.313 136.049 129.339 135.917 129.331 135.785C129.342 135.65 129.316 135.514 129.255 135.389C129.194 135.263 129.099 135.153 128.979 135.066C128.712 134.875 128.374 134.777 128.03 134.79H126.482V136.735H128.065C128.398 136.748 128.727 136.661 128.997 136.49Z" fill="#E3E3E3"/>
<path d="M133.536 132.767C133.843 132.621 134.188 132.548 134.538 132.553V133.61H134.257C133.872 133.586 133.493 133.697 133.202 133.916C132.938 134.218 132.813 134.595 132.85 134.973V137.562H131.689V132.629H132.85V133.349C133.018 133.108 133.254 132.908 133.536 132.767Z" fill="#E3E3E3"/>
<path d="M135.488 133.763C135.71 133.395 136.044 133.088 136.454 132.875C136.863 132.661 137.332 132.55 137.809 132.553C138.212 132.546 138.611 132.625 138.97 132.783C139.28 132.916 139.551 133.11 139.762 133.349V132.63H140.94V137.562H139.691V136.827C139.475 137.071 139.199 137.27 138.882 137.409C138.517 137.567 138.112 137.646 137.704 137.638C137.238 137.643 136.78 137.531 136.385 137.317C135.973 137.099 135.638 136.786 135.417 136.413C135.173 136.002 135.052 135.543 135.065 135.08C135.071 134.617 135.217 134.162 135.488 133.763ZM139.515 134.207C139.37 133.975 139.158 133.78 138.9 133.641C138.645 133.507 138.353 133.438 138.055 133.441C137.756 133.447 137.464 133.518 137.205 133.65C136.946 133.781 136.731 133.968 136.578 134.192C136.416 134.467 136.332 134.771 136.332 135.08C136.332 135.389 136.416 135.694 136.578 135.969C136.716 136.214 136.937 136.417 137.211 136.551C137.465 136.689 137.757 136.763 138.055 136.765C138.352 136.762 138.642 136.693 138.9 136.566C139.16 136.422 139.372 136.222 139.515 135.984C139.678 135.709 139.762 135.405 139.762 135.096C139.762 134.787 139.678 134.482 139.515 134.207Z" fill="#E3E3E3"/>
<path d="M146.445 132.798C146.8 132.952 147.085 133.206 147.254 133.518C147.47 133.865 147.573 134.257 147.553 134.652V137.562H146.392V134.789C146.423 134.424 146.291 134.061 146.023 133.778C145.887 133.661 145.725 133.568 145.546 133.508C145.368 133.447 145.177 133.419 144.985 133.426C144.794 133.418 144.602 133.446 144.423 133.506C144.245 133.567 144.083 133.66 143.948 133.778C143.808 133.916 143.702 134.076 143.636 134.25C143.569 134.423 143.544 134.607 143.56 134.789V137.547H142.382V132.63H143.56V133.258C143.757 133.055 144.004 132.893 144.282 132.783C144.582 132.673 144.905 132.616 145.231 132.614C145.647 132.587 146.064 132.65 146.445 132.798Z" fill="#E3E3E3"/>
<path d="M148.908 133.763C149.135 133.398 149.469 133.091 149.876 132.875C150.289 132.658 150.765 132.546 151.247 132.553C151.624 132.558 151.995 132.631 152.338 132.767C152.666 132.89 152.956 133.079 153.182 133.319V130.945H154.378V137.562H153.182V136.827C152.977 137.074 152.705 137.274 152.391 137.409C152.031 137.567 151.633 137.646 151.23 137.638C150.753 137.643 150.284 137.531 149.876 137.317C149.468 137.094 149.135 136.782 148.908 136.413C148.672 135.999 148.552 135.542 148.556 135.08C148.55 134.623 148.67 134.171 148.908 133.763ZM152.954 134.207C152.722 133.873 152.353 133.628 151.922 133.523C151.49 133.418 151.029 133.46 150.632 133.64C150.364 133.767 150.144 133.958 149.999 134.192C149.837 134.467 149.752 134.771 149.752 135.08C149.752 135.389 149.837 135.694 149.999 135.969C150.137 136.214 150.358 136.417 150.632 136.551C150.885 136.689 151.177 136.763 151.476 136.765C151.772 136.762 152.063 136.693 152.32 136.566C152.591 136.428 152.81 136.226 152.954 135.984C153.104 135.706 153.182 135.403 153.182 135.096C153.182 134.788 153.104 134.485 152.954 134.207Z" fill="#E3E3E3"/>
<path d="M155.873 131.726C155.74 131.601 155.666 131.437 155.666 131.266C155.666 131.096 155.74 130.932 155.873 130.807C155.941 130.744 156.022 130.693 156.113 130.659C156.204 130.625 156.302 130.607 156.401 130.607C156.5 130.607 156.598 130.625 156.689 130.659C156.779 130.693 156.861 130.744 156.929 130.807C157.066 130.93 157.143 131.095 157.143 131.266C157.143 131.438 157.066 131.603 156.929 131.726C156.861 131.789 156.779 131.839 156.689 131.874C156.598 131.908 156.5 131.926 156.401 131.926C156.302 131.926 156.204 131.908 156.113 131.874C156.022 131.839 155.941 131.789 155.873 131.726ZM156.981 132.568V137.501H155.803V132.63L156.981 132.568Z" fill="#E3E3E3"/>
<path d="M162.557 132.798C162.914 132.956 163.203 133.208 163.384 133.518C163.591 133.868 163.694 134.258 163.683 134.652V137.562H162.522V134.789C162.539 134.607 162.513 134.423 162.447 134.25C162.38 134.076 162.274 133.916 162.135 133.778C162 133.66 161.838 133.567 161.659 133.507C161.48 133.446 161.289 133.418 161.097 133.426C160.906 133.421 160.716 133.45 160.537 133.51C160.359 133.571 160.197 133.662 160.06 133.778C159.787 134.06 159.648 134.422 159.673 134.789V137.547H158.512V132.63H159.673V133.258C159.876 133.054 160.128 132.892 160.411 132.783C160.712 132.673 161.035 132.616 161.361 132.614C161.771 132.587 162.183 132.65 162.557 132.798Z" fill="#E3E3E3"/>
<path d="M168.431 132.783C168.742 132.916 169.013 133.11 169.223 133.349V132.629H170.401V137.638C170.409 138.063 170.301 138.483 170.085 138.864C169.862 139.211 169.533 139.497 169.135 139.691C168.674 139.901 168.16 140.007 167.64 139.997C166.964 140.023 166.298 139.856 165.74 139.522C165.495 139.38 165.288 139.193 165.136 138.973C164.984 138.753 164.89 138.506 164.861 138.251H166.022C166.124 138.513 166.33 138.735 166.602 138.879C166.916 139.039 167.276 139.119 167.64 139.109C167.849 139.118 168.058 139.09 168.255 139.027C168.451 138.964 168.631 138.867 168.783 138.741C169.091 138.438 169.249 138.042 169.223 137.638V136.826C169.011 137.074 168.733 137.274 168.414 137.408C168.06 137.565 167.668 137.644 167.271 137.638C166.794 137.643 166.325 137.531 165.916 137.317C165.504 137.098 165.17 136.786 164.949 136.413C164.705 136.001 164.584 135.543 164.597 135.08C164.581 134.622 164.703 134.168 164.949 133.763C165.171 133.395 165.505 133.088 165.915 132.874C166.324 132.661 166.793 132.55 167.271 132.553C167.673 132.547 168.071 132.626 168.431 132.783ZM168.977 134.207C168.832 133.969 168.612 133.773 168.344 133.64C168.096 133.505 167.809 133.436 167.517 133.441C167.219 133.434 166.925 133.503 166.672 133.64C166.404 133.767 166.184 133.958 166.039 134.192C165.877 134.467 165.793 134.771 165.793 135.08C165.793 135.389 165.877 135.694 166.039 135.969C166.178 136.214 166.398 136.417 166.672 136.551C166.926 136.689 167.218 136.763 167.517 136.765C167.819 136.763 168.115 136.69 168.372 136.552C168.629 136.414 168.839 136.218 168.977 135.984C169.139 135.709 169.223 135.404 169.223 135.095C169.223 134.786 169.139 134.482 168.977 134.207Z" fill="#E3E3E3"/>
<path d="M178.721 136.321H175.731L175.221 137.593H173.99L176.558 131.374H177.912L180.463 137.593H179.231L178.721 136.321ZM178.387 135.494L177.226 132.599L176.066 135.494H178.387Z" fill="#E3E3E3"/>
<path d="M184.912 132.783C185.226 132.912 185.498 133.107 185.704 133.349V132.63H186.9V137.638C186.902 138.064 186.787 138.484 186.566 138.864C186.353 139.217 186.022 139.506 185.616 139.691C185.161 139.9 184.653 140.005 184.139 139.997C183.458 140.023 182.785 139.856 182.221 139.522C181.978 139.38 181.775 139.192 181.625 138.972C181.476 138.752 181.385 138.506 181.359 138.251H182.52C182.616 138.512 182.816 138.735 183.083 138.879C183.405 139.038 183.769 139.117 184.139 139.109C184.56 139.121 184.97 138.989 185.282 138.741C185.584 138.436 185.735 138.04 185.704 137.638V136.827C185.495 137.071 185.224 137.27 184.912 137.409C184.517 137.574 184.08 137.653 183.642 137.637C183.203 137.621 182.776 137.511 182.397 137.317C181.99 137.094 181.656 136.782 181.43 136.413C181.194 135.999 181.074 135.542 181.078 135.08C181.072 134.623 181.192 134.171 181.43 133.763C181.657 133.398 181.991 133.091 182.397 132.875C182.806 132.66 183.275 132.549 183.752 132.553C184.154 132.546 184.553 132.625 184.912 132.783ZM185.475 134.207C185.244 133.873 184.875 133.628 184.443 133.523C184.012 133.418 183.551 133.46 183.154 133.641C182.885 133.767 182.665 133.958 182.52 134.192C182.358 134.467 182.274 134.771 182.274 135.08C182.274 135.389 182.358 135.694 182.52 135.969C182.659 136.214 182.88 136.417 183.154 136.551C183.407 136.689 183.699 136.763 183.998 136.765C184.294 136.762 184.585 136.693 184.842 136.566C185.112 136.428 185.332 136.226 185.475 135.984C185.626 135.706 185.704 135.403 185.704 135.096C185.704 134.788 185.626 134.485 185.475 134.207Z" fill="#E3E3E3"/>
<path d="M193.479 135.479H189.152C189.174 135.841 189.357 136.182 189.662 136.428C189.964 136.669 190.362 136.795 190.77 136.781C191.047 136.797 191.323 136.74 191.562 136.617C191.8 136.494 191.99 136.311 192.107 136.091H193.374C193.203 136.539 192.877 136.93 192.441 137.21C191.929 137.525 191.308 137.676 190.682 137.639C190.174 137.642 189.673 137.537 189.223 137.332C188.801 137.115 188.454 136.803 188.22 136.428C187.966 136.02 187.839 135.56 187.851 135.096C187.842 134.633 187.963 134.176 188.202 133.763C188.432 133.39 188.78 133.082 189.205 132.875C189.655 132.654 190.166 132.543 190.682 132.553C191.179 132.549 191.669 132.655 192.107 132.859C192.52 133.056 192.857 133.354 193.074 133.717C193.32 134.1 193.442 134.535 193.426 134.973C193.463 135.14 193.48 135.309 193.479 135.479ZM192.301 134.652C192.302 134.481 192.261 134.313 192.183 134.157C192.104 134.002 191.988 133.862 191.843 133.748C191.524 133.525 191.126 133.406 190.718 133.411C190.334 133.4 189.962 133.521 189.68 133.748C189.389 133.985 189.208 134.306 189.17 134.652H192.301Z" fill="#E3E3E3"/>
<path d="M198.615 132.799C198.971 132.956 199.261 133.208 199.442 133.519C199.658 133.866 199.761 134.258 199.741 134.652V137.562H198.58V134.79C198.611 134.424 198.478 134.062 198.21 133.779C198.075 133.661 197.912 133.569 197.734 133.508C197.555 133.448 197.364 133.42 197.173 133.427C196.978 133.42 196.785 133.447 196.603 133.508C196.422 133.568 196.256 133.661 196.117 133.779C195.849 134.062 195.717 134.424 195.748 134.79V137.547H194.569V132.63H195.748V133.258C195.941 133.052 196.189 132.889 196.469 132.783C196.77 132.673 197.093 132.616 197.419 132.615C197.829 132.586 198.241 132.649 198.615 132.799Z" fill="#E3E3E3"/>
<path d="M201.095 133.763C201.317 133.39 201.659 133.082 202.079 132.874C202.518 132.656 203.017 132.545 203.522 132.553C204.148 132.514 204.769 132.666 205.281 132.982C205.744 133.275 206.07 133.705 206.195 134.192H204.929C204.838 133.962 204.665 133.764 204.437 133.625C204.187 133.48 203.892 133.405 203.592 133.411C203.375 133.403 203.159 133.439 202.961 133.516C202.762 133.593 202.587 133.709 202.449 133.855C202.163 134.221 202.01 134.653 202.01 135.096C202.01 135.538 202.163 135.97 202.449 136.336C202.584 136.485 202.759 136.603 202.958 136.68C203.157 136.758 203.375 136.792 203.592 136.78C203.881 136.801 204.169 136.736 204.412 136.598C204.654 136.459 204.836 136.254 204.929 136.015H206.195C206.045 136.492 205.717 136.912 205.263 137.209C204.752 137.527 204.13 137.678 203.504 137.638C203.001 137.644 202.505 137.539 202.062 137.332C201.645 137.114 201.305 136.802 201.077 136.428C200.846 136.013 200.727 135.557 200.727 135.096C200.727 134.634 200.846 134.178 201.077 133.763H201.095Z" fill="#E3E3E3"/>
<path d="M212.281 132.63L208.763 139.875H207.55L208.693 137.486L206.53 132.63H207.831L209.414 136.398L211.067 132.63H212.281Z" fill="#E3E3E3"/>
<path d="M236.519 83.8586C235.199 83.8616 233.908 83.5233 232.809 82.8866C231.71 82.2499 230.852 81.3433 230.346 80.2819C229.839 79.2205 229.706 78.052 229.962 76.9244C230.219 75.7968 230.854 74.761 231.787 73.9482C232.721 73.1353 233.91 72.5821 235.205 72.3586C236.5 72.1351 237.842 72.2514 239.06 72.6926C240.279 73.1339 241.32 73.8804 242.051 74.8374C242.782 75.7945 243.171 76.919 243.167 78.0685C243.163 79.6029 242.461 81.0733 241.215 82.1583C239.969 83.2432 238.281 83.8546 236.519 83.8586ZM236.519 72.7533C235.312 72.7533 234.132 73.065 233.128 73.649C232.124 74.2331 231.342 75.0632 230.88 76.0345C230.418 77.0057 230.297 78.0744 230.533 79.1055C230.768 80.1365 231.349 81.0836 232.203 81.827C233.057 82.5703 234.144 83.0765 235.328 83.2816C236.512 83.4867 237.739 83.3815 238.854 82.9792C239.97 82.5769 240.923 81.8956 241.593 81.0215C242.264 80.1474 242.622 79.1198 242.622 78.0685C242.622 76.6588 241.979 75.3069 240.834 74.3101C239.69 73.3133 238.138 72.7533 236.519 72.7533Z" fill="#E3E3E3"/>
<path d="M233.177 76.8581H231.717V76.1995H235.533V76.8581H234.074V80.5956H233.177V76.8581Z" fill="#E3E3E3"/>
<path d="M236.308 76.1995H237.31L238.207 78.3439L238.524 79.217C238.629 78.926 238.735 78.6197 238.84 78.3439L239.72 76.1995H240.74V80.5956H239.948V78.589C239.948 78.1754 239.949 77.5934 240.054 77.1798L239.632 78.2061L238.805 80.1821H238.278L237.451 78.2061L237.046 77.1798C237.046 77.5934 237.152 78.1754 237.152 78.589V80.5956H236.36L236.308 76.1995Z" fill="#E3E3E3"/>
</g>
<defs>
<filter id="filter0_i_477_617" x="0" y="-32" width="285" height="232" filterUnits="userSpaceOnUse" color-interpolation-filters="sRGB">
<feFlood flood-opacity="0" result="BackgroundImageFix"/>
<feBlend mode="normal" in="SourceGraphic" in2="BackgroundImageFix" result="shape"/>
<feColorMatrix in="SourceAlpha" type="matrix" values="0 0 0 0 0 0 0 0 0 0 0 0 0 0 0 0 0 0 127 0" result="hardAlpha"/>
<feOffset dy="-32"/>
<feGaussianBlur stdDeviation="20"/>
<feComposite in2="hardAlpha" operator="arithmetic" k2="-1" k3="1"/>
<feColorMatrix type="matrix" values="0 0 0 0 0.0509804 0 0 0 0 0.0509804 0 0 0 0 0.0509804 0 0 0 1 0"/>
<feBlend mode="normal" in2="shape" result="effect1_innerShadow_477_617"/>
</filter>
</defs>
</svg>
