<svg width="285" height="200" viewBox="0 0 285 200" fill="none" xmlns="http://www.w3.org/2000/svg">
<g filter="url(#filter0_i_477_655)">
<path d="M0 8C0 3.58173 3.58172 0 8 0H277C281.418 0 285 3.58172 285 8V200H0V8Z" fill="#292929"/>
<path d="M109.046 71.4772C109.046 71.8306 109.187 72.1696 109.437 72.4195C109.687 72.6694 110.026 72.8098 110.379 72.8098H139.655C140.003 72.8097 140.337 72.9455 140.586 73.1882C140.835 73.431 140.979 73.7614 140.988 74.109V97.6019C140.979 97.9495 140.835 98.2799 140.586 98.5227C140.337 98.7654 140.003 98.9013 139.655 98.9011H87.3326C86.9848 98.9013 86.6509 98.7654 86.4019 98.5227C86.1529 98.2799 86.0087 97.9495 86 97.6019V45.3326C86 44.9791 86.1404 44.6402 86.3903 44.3903C86.6402 44.1404 86.9791 44 87.3326 44H139.622C139.975 44 140.314 44.1404 140.564 44.3903C140.814 44.6402 140.954 44.9791 140.954 45.3326V68.8787C140.954 69.2322 140.814 69.5711 140.564 69.821C140.314 70.0709 139.975 70.2113 139.622 70.2113H110.379C110.037 70.2109 109.708 70.3421 109.46 70.5777C109.211 70.8134 109.064 71.1355 109.046 71.4772Z" fill="#E3E3E3"/>
<path d="M109.046 128.95C109.046 129.303 109.187 129.642 109.437 129.892C109.687 130.142 110.026 130.282 110.379 130.282H139.655C140.003 130.282 140.337 130.418 140.586 130.661C140.835 130.904 140.979 131.234 140.988 131.582V155.101C140.979 155.449 140.835 155.779 140.586 156.022C140.337 156.265 140.003 156.4 139.655 156.4H87.3326C86.9848 156.4 86.6509 156.265 86.4019 156.022C86.1529 155.779 86.0087 155.449 86 155.101V102.805C86.0087 102.457 86.1529 102.127 86.4019 101.884C86.6509 101.642 86.9848 101.506 87.3326 101.506H139.622C139.97 101.506 140.304 101.642 140.553 101.884C140.802 102.127 140.946 102.457 140.954 102.805V126.351C140.954 126.705 140.814 127.044 140.564 127.294C140.314 127.543 139.975 127.684 139.622 127.684H110.379C110.037 127.683 109.708 127.815 109.46 128.05C109.211 128.286 109.064 128.608 109.046 128.95Z" fill="#E3E3E3"/>
<path d="M174.588 57.3722C174.454 57.6901 174.449 58.0476 174.573 58.3694C174.697 58.6913 174.941 58.9524 175.254 59.0978L199.24 69.9981C199.465 70.1051 199.655 70.2729 199.79 70.4825C199.924 70.6921 199.997 70.9352 200 71.1841V97.6019C200 97.9496 199.864 98.2836 199.621 98.5326C199.379 98.7815 199.048 98.9258 198.701 98.9345H146.358C146.01 98.9258 145.68 98.7815 145.437 98.5326C145.194 98.2836 145.059 97.9496 145.059 97.6019V90.5194C145.062 90.2559 145.144 89.9995 145.294 89.7825C145.443 89.5654 145.653 89.3976 145.898 89.3001L167.959 81.0449C168.278 80.9181 168.537 80.6725 168.679 80.3596C168.822 80.0466 168.839 79.6906 168.725 79.3659C168.597 79.0474 168.351 78.7906 168.038 78.6491C167.725 78.5076 167.37 78.4923 167.046 78.6064L146.811 86.1819C146.611 86.2543 146.396 86.2777 146.185 86.2501C145.974 86.2226 145.773 86.1449 145.598 86.0235C145.423 85.9022 145.28 85.7407 145.18 85.5527C145.081 85.3646 145.028 85.1555 145.025 84.9427V45.3326C145.025 44.9848 145.161 44.6508 145.404 44.4019C145.647 44.1529 145.977 44.0087 146.325 44H198.621C198.968 44.0087 199.299 44.1529 199.541 44.4019C199.784 44.6508 199.92 44.9848 199.92 45.3326V65.4607C199.912 65.6756 199.853 65.8854 199.747 66.0724C199.641 66.2593 199.491 66.4178 199.31 66.5343C199.13 66.6508 198.924 66.7219 198.709 66.7415C198.495 66.761 198.28 66.7285 198.081 66.6467L176.34 56.7259C176.022 56.5824 175.66 56.5698 175.332 56.6906C175.004 56.8115 174.737 57.0563 174.588 57.3722Z" fill="#E3E3E3"/>
<path d="M199.947 102.805V155.101C199.938 155.449 199.794 155.779 199.545 156.022C199.296 156.265 198.962 156.4 198.614 156.4H165.813V135.626C165.813 135.452 165.779 135.281 165.711 135.121C165.644 134.961 165.545 134.816 165.421 134.695C165.297 134.574 165.15 134.479 164.988 134.416C164.827 134.352 164.654 134.322 164.481 134.327C164.139 134.335 163.813 134.475 163.571 134.717C163.329 134.958 163.19 135.284 163.181 135.626V156.4H146.358C146.01 156.4 145.676 156.265 145.427 156.022C145.178 155.779 145.034 155.449 145.025 155.101V102.805C145.034 102.463 145.173 102.138 145.415 101.896C145.657 101.654 145.983 101.514 146.325 101.506H172.762C173.011 101.508 173.253 101.58 173.463 101.713C173.672 101.846 173.84 102.035 173.948 102.259L184.849 126.245C185.03 126.49 185.29 126.665 185.586 126.741C185.881 126.817 186.193 126.79 186.471 126.664C186.749 126.538 186.974 126.32 187.111 126.047C187.247 125.774 187.286 125.463 187.221 125.165L177.3 103.371C177.218 103.173 177.185 102.957 177.205 102.743C177.225 102.529 177.296 102.323 177.412 102.142C177.529 101.961 177.687 101.812 177.874 101.705C178.061 101.599 178.271 101.54 178.486 101.533H198.614C198.957 101.532 199.287 101.664 199.536 101.901C199.784 102.138 199.931 102.462 199.947 102.805Z" fill="#E3E3E3"/>
</g>
<defs>
<filter id="filter0_i_477_655" x="0" y="-32" width="285" height="232" filterUnits="userSpaceOnUse" color-interpolation-filters="sRGB">
<feFlood flood-opacity="0" result="BackgroundImageFix"/>
<feBlend mode="normal" in="SourceGraphic" in2="BackgroundImageFix" result="shape"/>
<feColorMatrix in="SourceAlpha" type="matrix" values="0 0 0 0 0 0 0 0 0 0 0 0 0 0 0 0 0 0 127 0" result="hardAlpha"/>
<feOffset dy="-32"/>
<feGaussianBlur stdDeviation="20"/>
<feComposite in2="hardAlpha" operator="arithmetic" k2="-1" k3="1"/>
<feColorMatrix type="matrix" values="0 0 0 0 0.0509804 0 0 0 0 0.0509804 0 0 0 0 0.0509804 0 0 0 1 0"/>
<feBlend mode="normal" in2="shape" result="effect1_innerShadow_477_655"/>
</filter>
</defs>
</svg>
