<svg width="29" height="29" viewBox="0 0 29 29" fill="none" xmlns="http://www.w3.org/2000/svg">
<path fill-rule="evenodd" clip-rule="evenodd" d="M7.71216 12.1763C6.57144 12.1763 6.33337 12.4002 6.33337 13.4726V15.4171C6.33337 16.4896 6.57144 16.7133 7.71216 16.7133H10.4697V24.4912C10.4697 25.5636 10.7078 25.7874 11.8485 25.7874H14.6061C15.7469 25.7874 15.9849 25.5636 15.9849 24.4912V16.7133H19.0812C19.9464 16.7133 20.1693 16.5553 20.407 15.7732L20.9979 13.8288C21.405 12.4891 21.1541 12.1763 19.6721 12.1763H15.9849V8.93559C15.9849 8.21966 16.6021 7.63928 17.3636 7.63928H21.2879C22.4286 7.63928 22.6667 7.41546 22.6667 6.34299V3.7504C22.6667 2.67793 22.4286 2.4541 21.2879 2.4541H17.3636C13.5562 2.4541 10.4697 5.35596 10.4697 8.93559V12.1763H7.71216Z" stroke="#C5C5C5" stroke-width="1.85625" stroke-linejoin="round"/>
</svg>
