<svg width="29" height="29" viewBox="0 0 29 29" fill="none" xmlns="http://www.w3.org/2000/svg">
<path d="M3.41663 14.1209C3.41663 8.8962 3.41663 6.28384 5.03974 4.66071C6.66286 3.0376 9.27523 3.0376 14.5 3.0376C19.7246 3.0376 22.337 3.0376 23.9602 4.66071C25.5833 6.28384 25.5833 8.8962 25.5833 14.1209C25.5833 19.3456 25.5833 21.958 23.9602 23.5812C22.337 25.2043 19.7246 25.2043 14.5 25.2043C9.27523 25.2043 6.66286 25.2043 5.03974 23.5812C3.41663 21.958 3.41663 19.3456 3.41663 14.1209Z" stroke="#C5C5C5" stroke-width="1.85625" stroke-linejoin="round"/>
<path d="M19.75 14.1206C19.75 17.0201 17.3995 19.3706 14.5 19.3706C11.6005 19.3706 9.25 17.0201 9.25 14.1206C9.25 11.2211 11.6005 8.87061 14.5 8.87061C17.3995 8.87061 19.75 11.2211 19.75 14.1206Z" stroke="#C5C5C5" stroke-width="1.85625"/>
<path d="M20.9263 7.7041H20.9152" stroke="#C5C5C5" stroke-width="2.475" stroke-linecap="round" stroke-linejoin="round"/>
</svg>
