<svg width="29" height="29" viewBox="0 0 29 29" fill="none" xmlns="http://www.w3.org/2000/svg">
<path d="M8.66669 11.7876V19.9543" stroke="#C5C5C5" stroke-width="1.85625" stroke-linecap="round" stroke-linejoin="round"/>
<path d="M13.3334 15.2876V19.9543M13.3334 15.2876C13.3334 13.3545 14.9003 11.7876 16.8334 11.7876C18.7664 11.7876 20.3334 13.3545 20.3334 15.2876V19.9543M13.3334 15.2876V11.7876" stroke="#C5C5C5" stroke-width="1.85625" stroke-linecap="round" stroke-linejoin="round"/>
<path d="M8.67658 8.2876H8.66553" stroke="#C5C5C5" stroke-width="2.475" stroke-linecap="round" stroke-linejoin="round"/>
<path d="M3.41669 14.1209C3.41669 8.8962 3.41669 6.28384 5.0398 4.66071C6.66293 3.0376 9.27529 3.0376 14.5 3.0376C19.7247 3.0376 22.3371 3.0376 23.9603 4.66071C25.5834 6.28384 25.5834 8.8962 25.5834 14.1209C25.5834 19.3456 25.5834 21.958 23.9603 23.5812C22.3371 25.2043 19.7247 25.2043 14.5 25.2043C9.27529 25.2043 6.66293 25.2043 5.0398 23.5812C3.41669 21.958 3.41669 19.3456 3.41669 14.1209Z" stroke="#C5C5C5" stroke-width="1.85625" stroke-linejoin="round"/>
</svg>
