<svg width="142" height="45" viewBox="0 0 142 45" fill="none" xmlns="http://www.w3.org/2000/svg">
<path d="M43.3163 0.775879V43.5921H21.9082C10.1182 43.5921 0.500061 34.1291 0.500061 22.184C0.500061 10.2389 10.1182 0.775879 21.9082 0.775879H43.3163Z" fill="#E3E3E3"/>
<path d="M69.3783 0.775879V30.8714C69.3783 37.8523 63.6385 43.5921 56.6575 43.5921H47.9702V0.775879H69.3783Z" fill="#E3E3E3"/>
<path d="M81.8404 16.7414C80.6229 16.1327 79.5575 15.0673 78.7966 13.8497C78.0356 12.6322 77.7312 11.2625 77.7312 9.74056C77.7312 8.21863 78.0356 6.84888 78.7966 5.63134C79.5575 4.4138 80.4707 3.50065 81.8404 2.73968C83.058 2.13091 84.5799 1.67432 86.1018 1.67432C87.4715 1.67432 88.8413 1.9787 89.9066 2.43528C90.972 2.89186 92.0373 3.65286 92.6461 4.56602L89.9066 7.00106C88.8413 5.78352 87.7759 5.17478 86.254 5.17478C85.493 5.17478 84.732 5.32696 83.9711 5.78354C83.3623 6.08793 82.7535 6.6967 82.4491 7.30547C82.1448 7.91424 81.8404 8.6752 81.8404 9.58836C81.8404 10.5015 81.9926 11.2625 82.4491 11.8713C82.7535 12.48 83.3623 13.0888 83.9711 13.3932C84.5798 13.6976 85.3408 14.0019 86.254 14.0019C87.6237 14.0019 88.8413 13.3932 89.9066 12.1757L92.6461 14.6107C91.8851 15.5239 90.972 16.2849 89.9066 16.7414C88.8413 17.198 87.4715 17.5024 86.1018 17.5024C84.5799 17.8068 83.058 17.3502 81.8404 16.7414Z" fill="#E3E3E3"/>
<path d="M105.278 6.69589C106.191 7.60904 106.648 8.8266 106.648 10.6529V17.5016H102.539V11.4139C102.539 9.73975 101.93 8.97878 100.56 8.97878C99.7992 8.97878 99.3426 9.28316 98.886 9.73974C98.4295 10.1963 98.2773 10.9573 98.2773 11.8704V17.6537H94.1681V1.36914H98.2773V6.84809C98.7339 6.39151 99.1905 6.08712 99.7992 5.93492C100.408 5.78273 101.017 5.63052 101.778 5.63052C103.147 5.32613 104.365 5.78273 105.278 6.69589Z" fill="#E3E3E3"/>
<path d="M114.257 5.78322C114.866 5.47883 115.779 5.32666 116.54 5.32666V9.13148C116.236 9.13148 115.779 9.13148 115.627 9.13148C114.714 9.13148 114.105 9.43586 113.497 9.89244C113.04 10.349 112.736 11.11 112.736 12.1753V17.6542H108.626V5.78322H112.583V7.15295C113.04 6.39198 113.497 6.08761 114.257 5.78322Z" fill="#E3E3E3"/>
<path d="M117.91 3.65262C117.453 3.19604 117.149 2.73946 117.149 2.13069C117.149 1.52192 117.453 0.913147 117.91 0.608762C118.367 0.152183 118.975 0 119.736 0C120.497 0 121.106 0.152183 121.563 0.608762C122.019 1.06534 122.324 1.52192 122.324 2.13069C122.324 2.73946 122.019 3.34824 121.563 3.80482C121.106 4.2614 120.497 4.41358 119.736 4.41358C118.975 4.41358 118.367 4.1092 117.91 3.65262ZM117.758 5.6311H121.867V17.5022H117.758V5.6311Z" fill="#E3E3E3"/>
<path d="M125.368 17.3496C124.454 17.1974 123.693 16.893 123.085 16.4364L124.302 13.5448C124.911 13.8491 125.52 14.1535 126.281 14.3057C127.042 14.4579 127.803 14.6101 128.564 14.6101C129.172 14.6101 129.781 14.6101 129.933 14.4579C130.238 14.3057 130.39 14.1535 130.39 13.8491C130.39 13.5447 130.238 13.3926 129.933 13.2404C129.629 13.0882 129.02 13.0882 128.259 12.936C127.346 12.7838 126.433 12.6316 125.824 12.4794C125.215 12.3272 124.607 11.8707 124.15 11.4141C123.694 10.9575 123.389 10.1965 123.389 9.28334C123.389 8.52237 123.541 7.91362 123.998 7.30485C124.454 6.69608 125.063 6.23951 125.976 5.93512C126.89 5.63074 127.955 5.47852 129.172 5.47852C130.086 5.47852 130.847 5.63073 131.76 5.78292C132.673 5.93511 133.282 6.2395 133.89 6.54388L132.673 9.43554C131.607 8.82677 130.542 8.52237 129.325 8.52237C128.716 8.52237 128.259 8.67458 127.955 8.82678C127.651 8.97897 127.498 9.13115 127.498 9.43554C127.498 9.73992 127.651 9.89211 127.955 10.0443C128.259 10.1965 128.868 10.1965 129.629 10.3487C130.542 10.5009 131.455 10.6531 132.064 10.8053C132.673 10.9575 133.282 11.4141 133.738 11.8706C134.195 12.3272 134.499 13.0882 134.499 14.0013C134.499 14.7623 134.347 15.3711 133.89 15.9799C133.434 16.5886 132.825 17.0452 131.912 17.3496C130.999 17.654 129.933 17.8061 128.716 17.8061C127.346 17.6539 126.433 17.5018 125.368 17.3496Z" fill="#E3E3E3"/>
<path d="M78.7966 35.0046C77.8835 34.548 77.1225 34.0914 76.5137 33.3304L78.9488 30.591C79.7097 31.6563 80.6229 32.2652 81.5361 32.2652C82.1448 32.2652 82.6014 32.1129 82.9058 31.6564C83.2101 31.352 83.3624 30.7432 83.3624 29.9822V23.2858H78.0357V19.9375H87.6238V29.6779C87.6238 31.6564 87.1672 33.1783 86.1019 34.0914C85.0365 35.1568 83.6667 35.6133 81.6882 35.6133C80.7751 35.6133 79.7098 35.309 78.7966 35.0046Z" fill="#E3E3E3"/>
<path d="M92.494 34.6996C91.4287 34.243 90.6676 33.482 90.0589 32.5689C89.4501 31.6557 89.1458 30.5904 89.1458 29.3729C89.1458 28.1553 89.4501 27.09 90.0589 26.1768C90.6676 25.2637 91.4287 24.5027 92.494 24.0461C93.5594 23.5895 94.6247 23.2852 95.9944 23.2852C97.212 23.2852 98.4295 23.5895 99.4948 24.0461C100.56 24.5027 101.321 25.2637 101.93 26.1768C102.539 27.09 102.843 28.1553 102.843 29.3729C102.843 30.5904 102.539 31.6557 101.93 32.5689C101.321 33.482 100.56 34.243 99.4948 34.6996C98.4295 35.1562 97.3642 35.4606 95.9944 35.4606C94.6247 35.4606 93.5594 35.1562 92.494 34.6996ZM97.6685 31.3514C98.1251 30.8948 98.4295 30.1338 98.4295 29.2207C98.4295 28.3075 98.1251 27.6987 97.6685 27.09C97.2119 26.6334 96.6031 26.329 95.8422 26.329C95.0812 26.329 94.4725 26.6334 94.0159 27.09C93.5594 27.5466 93.255 28.3075 93.255 29.2207C93.255 30.1338 93.5594 30.7426 94.0159 31.3514C94.4725 31.8079 95.0812 32.1123 95.8422 32.1123C96.6031 32.1123 97.2119 31.9601 97.6685 31.3514Z" fill="#E3E3E3"/>
<path d="M115.323 24.5025C116.236 25.4157 116.693 26.6332 116.693 28.4595V35.3083H112.583V29.2205C112.583 27.5464 111.975 26.7854 110.605 26.7854C109.844 26.7854 109.387 27.0898 108.931 27.5464C108.474 28.003 108.322 28.764 108.322 29.6771V35.4604H104.213V19.1758H108.322V24.6547C108.779 24.1982 109.235 23.8938 109.844 23.7416C110.453 23.5894 111.062 23.4372 111.822 23.4372C113.192 23.1328 114.41 23.5894 115.323 24.5025Z" fill="#E3E3E3"/>
<path d="M129.933 24.5032C130.847 25.4164 131.303 26.6339 131.303 28.4602V35.3089H127.194V29.2212C127.194 27.5471 126.585 26.7861 125.215 26.7861C124.454 26.7861 123.998 27.0905 123.541 27.5471C123.085 28.0036 122.933 28.7646 122.933 29.6778V35.4611H118.823V23.5901H122.78V24.8076C123.237 24.351 123.846 23.8944 124.454 23.7422C125.063 23.4379 125.824 23.2857 126.585 23.2857C127.955 23.1335 129.02 23.59 129.933 24.5032Z" fill="#E3E3E3"/>
<path d="M139.065 6.23953L138.152 4.7176H137.543V6.23953H137.087V2.58691H138.304C138.608 2.58691 138.761 2.58692 139.065 2.73912C139.217 2.89131 139.369 2.89133 139.522 3.04352C139.674 3.19571 139.674 3.3479 139.674 3.65228C139.674 3.95667 139.674 4.10885 139.522 4.26104C139.369 4.41324 139.217 4.56545 138.913 4.56545L139.826 6.08738H139.065V6.23953ZM137.695 4.26104H138.456C138.761 4.26104 138.913 4.26103 139.065 4.10884C139.217 3.95665 139.217 3.80447 139.217 3.65228C139.217 3.50009 139.217 3.19568 139.065 3.19568C138.913 3.04348 138.761 3.04352 138.456 3.04352H137.695V4.26104Z" fill="#E3E3E3"/>
<path d="M138.456 7.45685C136.782 7.45685 135.412 6.08712 135.412 4.413C135.412 2.73888 136.782 1.36914 138.456 1.36914C140.13 1.36914 141.5 2.73888 141.5 4.413C141.5 6.08712 140.13 7.45685 138.456 7.45685ZM138.456 1.6735C136.934 1.6735 135.717 2.89107 135.717 4.413C135.717 5.93492 136.934 7.15245 138.456 7.15245C139.978 7.15245 141.196 5.93492 141.196 4.413C141.196 2.89107 139.978 1.6735 138.456 1.6735Z" fill="#E3E3E3"/>
<path d="M128.427 42.9536C128.061 42.9536 127.745 42.8759 127.478 42.7204C127.212 42.5633 127.007 42.345 126.863 42.0654C126.718 41.7842 126.646 41.4583 126.646 41.0876C126.646 40.7137 126.718 40.387 126.863 40.1074C127.007 39.8262 127.212 39.6079 127.478 39.4524C127.745 39.2953 128.061 39.2168 128.427 39.2168C128.793 39.2168 129.109 39.2953 129.374 39.4524C129.641 39.6079 129.847 39.8262 129.992 40.1074C130.136 40.387 130.208 40.7137 130.208 41.0876C130.208 41.4583 130.136 41.7842 129.992 42.0654C129.847 42.345 129.641 42.5633 129.374 42.7204C129.109 42.8759 128.793 42.9536 128.427 42.9536ZM128.432 42.1761C128.598 42.1761 128.737 42.129 128.849 42.0347C128.96 41.9389 129.044 41.8085 129.101 41.6436C129.159 41.4787 129.188 41.291 129.188 41.0805C129.188 40.87 129.159 40.6823 129.101 40.5174C129.044 40.3525 128.96 40.2221 128.849 40.1263C128.737 40.0304 128.598 39.9825 128.432 39.9825C128.264 39.9825 128.122 40.0304 128.008 40.1263C127.895 40.2221 127.809 40.3525 127.751 40.5174C127.694 40.6823 127.666 40.87 127.666 41.0805C127.666 41.291 127.694 41.4787 127.751 41.6436C127.809 41.8085 127.895 41.9389 128.008 42.0347C128.122 42.129 128.264 42.1761 128.432 42.1761Z" fill="#E3E3E3"/>
<path d="M124.246 42.8833V39.2642H125.219V39.8957H125.256C125.322 39.6711 125.433 39.5014 125.589 39.3868C125.744 39.2705 125.923 39.2124 126.126 39.2124C126.176 39.2124 126.23 39.2155 126.288 39.2218C126.346 39.2281 126.397 39.2367 126.441 39.2477V40.1384C126.394 40.1242 126.329 40.1117 126.246 40.1007C126.163 40.0897 126.086 40.0842 126.017 40.0842C125.87 40.0842 125.738 40.1164 125.622 40.1808C125.507 40.2436 125.416 40.3316 125.348 40.4447C125.282 40.5578 125.249 40.6881 125.249 40.8358V42.8833H124.246Z" fill="#E3E3E3"/>
<path d="M120.047 44.2401V39.2639H121.037V39.8718H121.081C121.125 39.7744 121.189 39.6755 121.272 39.5749C121.357 39.4728 121.467 39.388 121.602 39.3205C121.739 39.2514 121.908 39.2168 122.111 39.2168C122.375 39.2168 122.618 39.2859 122.841 39.4241C123.064 39.5608 123.243 39.7673 123.376 40.0438C123.51 40.3187 123.576 40.6635 123.576 41.0781C123.576 41.4818 123.511 41.8227 123.381 42.1007C123.252 42.3772 123.076 42.5868 122.853 42.7298C122.632 42.8712 122.383 42.9418 122.109 42.9418C121.914 42.9418 121.748 42.9096 121.611 42.8452C121.476 42.7808 121.366 42.6999 121.279 42.6026C121.193 42.5036 121.127 42.4039 121.081 42.3033H121.051V44.2401H120.047ZM121.029 41.0734C121.029 41.2886 121.059 41.4763 121.119 41.6365C121.179 41.7968 121.265 41.9216 121.378 42.0112C121.491 42.0991 121.629 42.1431 121.79 42.1431C121.954 42.1431 122.092 42.0983 122.205 42.0088C122.318 41.9177 122.404 41.792 122.462 41.6318C122.522 41.47 122.552 41.2839 122.552 41.0734C122.552 40.8645 122.522 40.6807 122.464 40.5221C122.406 40.3634 122.321 40.2394 122.208 40.1498C122.094 40.0603 121.955 40.0155 121.79 40.0155C121.627 40.0155 121.489 40.0587 121.376 40.1451C121.264 40.2315 121.179 40.354 121.119 40.5127C121.059 40.6713 121.029 40.8582 121.029 41.0734Z" fill="#E3E3E3"/>
<path d="M118.658 42.9446C118.502 42.9446 118.368 42.8896 118.257 42.7797C118.147 42.6681 118.092 42.5346 118.092 42.3791C118.092 42.2252 118.147 42.0932 118.257 41.9833C118.368 41.8733 118.502 41.8184 118.658 41.8184C118.808 41.8184 118.94 41.8733 119.053 41.9833C119.166 42.0932 119.223 42.2252 119.223 42.3791C119.223 42.4828 119.196 42.5778 119.143 42.6642C119.091 42.749 119.023 42.8174 118.938 42.8692C118.853 42.9195 118.76 42.9446 118.658 42.9446Z" fill="#E3E3E3"/>
<path d="M114.947 40.7907V42.8829H113.943V39.2639H114.9V39.9024H114.942C115.023 39.6919 115.157 39.5254 115.345 39.4029C115.534 39.2788 115.762 39.2168 116.031 39.2168C116.282 39.2168 116.501 39.2718 116.688 39.3817C116.875 39.4917 117.021 39.6488 117.124 39.853C117.228 40.0556 117.28 40.2975 117.28 40.5786V42.8829H116.276V40.7577C116.278 40.5362 116.221 40.3634 116.106 40.2394C115.992 40.1137 115.834 40.0509 115.633 40.0509C115.498 40.0509 115.378 40.0799 115.275 40.138C115.173 40.1962 115.092 40.281 115.034 40.3925C114.978 40.5025 114.949 40.6352 114.947 40.7907Z" fill="#E3E3E3"/>
<path d="M110.807 40.7912V42.8835H109.803V38.0581H110.779V39.903H110.821C110.903 39.6893 111.035 39.522 111.217 39.4011C111.399 39.2786 111.628 39.2173 111.902 39.2173C112.154 39.2173 112.373 39.2723 112.56 39.3823C112.748 39.4906 112.894 39.6469 112.998 39.8511C113.103 40.0537 113.155 40.2964 113.154 40.5792V42.8835H112.15V40.7582C112.151 40.5352 112.095 40.3616 111.98 40.2375C111.867 40.1134 111.708 40.0514 111.504 40.0514C111.368 40.0514 111.247 40.0804 111.141 40.1386C111.038 40.1967 110.956 40.2815 110.896 40.393C110.838 40.503 110.808 40.6357 110.807 40.7912Z" fill="#E3E3E3"/>
<path d="M107.369 42.9536C107.003 42.9536 106.687 42.8759 106.42 42.7204C106.154 42.5633 105.949 42.345 105.805 42.0654C105.66 41.7842 105.588 41.4583 105.588 41.0876C105.588 40.7137 105.66 40.387 105.805 40.1074C105.949 39.8262 106.154 39.6079 106.42 39.4524C106.687 39.2953 107.003 39.2168 107.369 39.2168C107.735 39.2168 108.051 39.2953 108.316 39.4524C108.583 39.6079 108.789 39.8262 108.934 40.1074C109.078 40.387 109.15 40.7137 109.15 41.0876C109.15 41.4583 109.078 41.7842 108.934 42.0654C108.789 42.345 108.583 42.5633 108.316 42.7204C108.051 42.8759 107.735 42.9536 107.369 42.9536ZM107.374 42.1761C107.54 42.1761 107.679 42.129 107.791 42.0347C107.902 41.9389 107.986 41.8085 108.043 41.6436C108.101 41.4787 108.13 41.291 108.13 41.0805C108.13 40.87 108.101 40.6823 108.043 40.5174C107.986 40.3525 107.902 40.2221 107.791 40.1263C107.679 40.0304 107.54 39.9825 107.374 39.9825C107.206 39.9825 107.064 40.0304 106.95 40.1263C106.837 40.2221 106.751 40.3525 106.693 40.5174C106.636 40.6823 106.608 40.87 106.608 41.0805C106.608 41.291 106.636 41.4787 106.693 41.6436C106.751 41.8085 106.837 41.9389 106.95 42.0347C107.064 42.129 107.206 42.1761 107.374 42.1761Z" fill="#E3E3E3"/>
<path d="M103.926 39.2647H104.93V43.0628C104.93 43.3424 104.875 43.5686 104.765 43.7414C104.655 43.9142 104.497 44.0406 104.292 44.1207C104.087 44.2008 103.843 44.2409 103.559 44.2409C103.524 44.2409 103.491 44.2401 103.46 44.2385C103.427 44.2385 103.392 44.2377 103.356 44.2362V43.4516C103.383 43.4531 103.406 43.4539 103.427 43.4539C103.446 43.4555 103.466 43.4563 103.488 43.4563C103.65 43.4563 103.763 43.4217 103.827 43.3526C103.893 43.2851 103.926 43.183 103.926 43.0463V39.2647ZM104.426 38.7982C104.278 38.7982 104.151 38.7487 104.044 38.6498C103.937 38.5492 103.884 38.4291 103.884 38.2893C103.884 38.1511 103.937 38.0325 104.044 37.9335C104.151 37.833 104.278 37.7827 104.426 37.7827C104.577 37.7827 104.705 37.833 104.81 37.9335C104.917 38.0325 104.97 38.1511 104.97 38.2893C104.97 38.4291 104.917 38.5492 104.81 38.6498C104.705 38.7487 104.577 38.7982 104.426 38.7982Z" fill="#E3E3E3"/>
<path d="M103.212 40.2959L102.293 40.3525C102.277 40.2739 102.243 40.2032 102.192 40.1404C102.14 40.076 102.071 40.0249 101.987 39.9873C101.903 39.948 101.804 39.9283 101.687 39.9283C101.532 39.9283 101.401 39.9613 101.294 40.0273C101.187 40.0917 101.134 40.1781 101.134 40.2865C101.134 40.3729 101.168 40.4459 101.237 40.5056C101.306 40.5653 101.425 40.6132 101.593 40.6493L102.248 40.7813C102.6 40.8535 102.862 40.9698 103.035 41.13C103.208 41.2902 103.294 41.5007 103.294 41.7614C103.294 41.9986 103.224 42.2067 103.085 42.3858C102.946 42.5649 102.756 42.7047 102.514 42.8052C102.274 42.9041 101.997 42.9536 101.683 42.9536C101.204 42.9536 100.822 42.8539 100.538 42.6544C100.255 42.4533 100.089 42.18 100.04 41.8345L101.028 41.7826C101.057 41.9287 101.13 42.0402 101.244 42.1172C101.359 42.1926 101.506 42.2303 101.685 42.2303C101.861 42.2303 102.002 42.1965 102.109 42.129C102.217 42.0599 102.272 41.9711 102.274 41.8627C102.272 41.7716 102.234 41.697 102.159 41.6389C102.083 41.5792 101.967 41.5337 101.81 41.5022L101.183 41.3774C100.83 41.3067 100.567 41.1842 100.394 41.0098C100.223 40.8355 100.137 40.6132 100.137 40.343C100.137 40.1106 100.2 39.9103 100.325 39.7422C100.453 39.5741 100.631 39.4446 100.86 39.3535C101.091 39.2623 101.361 39.2168 101.671 39.2168C102.128 39.2168 102.488 39.3134 102.75 39.5066C103.014 39.6998 103.168 39.9629 103.212 40.2959Z" fill="#E3E3E3"/>
<path d="M98.393 42.8837V39.2647H99.3967V42.8837H98.393ZM98.8972 38.7982C98.748 38.7982 98.62 38.7487 98.5131 38.6498C98.4079 38.5492 98.3553 38.4291 98.3553 38.2893C98.3553 38.1511 98.4079 38.0325 98.5131 37.9335C98.62 37.833 98.748 37.7827 98.8972 37.7827C99.0464 37.7827 99.1736 37.833 99.2789 37.9335C99.3857 38.0325 99.4391 38.1511 99.4391 38.2893C99.4391 38.4291 99.3857 38.5492 99.2789 38.6498C99.1736 38.7487 99.0464 38.7982 98.8972 38.7982Z" fill="#E3E3E3"/>
<path d="M95.6781 42.8833V39.2642H96.6512V39.8957H96.6889C96.7549 39.6711 96.8656 39.5014 97.0211 39.3868C97.1766 39.2705 97.3557 39.2124 97.5583 39.2124C97.6086 39.2124 97.6627 39.2155 97.7209 39.2218C97.779 39.2281 97.83 39.2367 97.874 39.2477V40.1384C97.8269 40.1242 97.7617 40.1117 97.6785 40.1007C97.5952 40.0897 97.519 40.0842 97.4499 40.0842C97.3023 40.0842 97.1703 40.1164 97.0541 40.1808C96.9394 40.2436 96.8483 40.3316 96.7808 40.4447C96.7148 40.5578 96.6818 40.6881 96.6818 40.8358V42.8833H95.6781Z" fill="#E3E3E3"/>
<path d="M92.5414 40.7912V42.8835H91.5377V38.0581H92.5132V39.903H92.5556C92.6372 39.6893 92.7692 39.522 92.9514 39.4011C93.1336 39.2786 93.3622 39.2173 93.637 39.2173C93.8884 39.2173 94.1075 39.2723 94.2944 39.3823C94.4829 39.4906 94.629 39.6469 94.7326 39.8511C94.8379 40.0537 94.8897 40.2964 94.8881 40.5792V42.8835H93.8844V40.7582C93.886 40.5352 93.8294 40.3616 93.7148 40.2375C93.6017 40.1134 93.443 40.0514 93.2388 40.0514C93.1022 40.0514 92.9812 40.0804 92.876 40.1386C92.7723 40.1967 92.6907 40.2815 92.631 40.393C92.5728 40.503 92.543 40.6357 92.5414 40.7912Z" fill="#E3E3E3"/>
<path d="M89.2788 42.9536C88.9081 42.9536 88.5892 42.8751 88.3222 42.718C88.0567 42.5594 87.8525 42.3395 87.7096 42.0583C87.5682 41.7771 87.4976 41.4535 87.4976 41.0876C87.4976 40.7169 87.569 40.3917 87.712 40.1121C87.8565 39.831 88.0615 39.6118 88.3269 39.4548C88.5924 39.2961 88.9081 39.2168 89.2741 39.2168C89.5898 39.2168 89.8663 39.2741 90.1034 39.3888C90.3406 39.5035 90.5283 39.6645 90.6666 39.8718C90.8048 40.0791 90.881 40.3226 90.8951 40.6022H89.9479C89.9212 40.4216 89.8505 40.2763 89.7359 40.1663C89.6228 40.0548 89.4744 39.999 89.2906 39.999C89.1351 39.999 88.9992 40.0414 88.883 40.1263C88.7683 40.2095 88.6788 40.3312 88.6144 40.4915C88.55 40.6517 88.5178 40.8457 88.5178 41.0734C88.5178 41.3043 88.5492 41.5007 88.612 41.6625C88.6764 41.8242 88.7667 41.9476 88.883 42.0324C88.9992 42.1172 89.1351 42.1596 89.2906 42.1596C89.4052 42.1596 89.5081 42.136 89.5992 42.0889C89.6919 42.0418 89.7681 41.9735 89.8278 41.8839C89.889 41.7928 89.9291 41.6837 89.9479 41.5564H90.8951C90.8794 41.8329 90.804 42.0764 90.6689 42.2868C90.5354 42.4957 90.3508 42.6591 90.1152 42.7769C89.8796 42.8947 89.6008 42.9536 89.2788 42.9536Z" fill="#E3E3E3"/>
<path d="M85.3277 42.9536C84.9555 42.9536 84.635 42.8782 84.3664 42.7274C84.0994 42.5751 83.8936 42.3599 83.7491 42.0819C83.6046 41.8023 83.5323 41.4716 83.5323 41.0899C83.5323 40.7177 83.6046 40.3909 83.7491 40.1098C83.8936 39.8286 84.097 39.6095 84.3594 39.4524C84.6232 39.2953 84.9327 39.2168 85.2877 39.2168C85.5264 39.2168 85.7487 39.2553 85.9544 39.3322C86.1618 39.4076 86.3424 39.5215 86.4964 39.6739C86.6519 39.8262 86.7728 40.0179 86.8592 40.2488C86.9456 40.4781 86.9888 40.7467 86.9888 41.0546V41.3302H83.9329V40.7082H86.044C86.044 40.5637 86.0126 40.4357 85.9497 40.3242C85.8869 40.2127 85.7997 40.1255 85.6882 40.0626C85.5783 39.9982 85.4502 39.966 85.3042 39.966C85.1518 39.966 85.0167 40.0014 84.8989 40.0721C84.7827 40.1412 84.6916 40.2346 84.6256 40.3525C84.5596 40.4687 84.5258 40.5983 84.5243 40.7412V41.3326C84.5243 41.5117 84.5573 41.6664 84.6232 41.7968C84.6908 41.9271 84.7858 42.0277 84.9083 42.0983C85.0308 42.169 85.1761 42.2044 85.3442 42.2044C85.4557 42.2044 85.5578 42.1887 85.6505 42.1572C85.7432 42.1258 85.8225 42.0787 85.8885 42.0159C85.9544 41.953 86.0047 41.8761 86.0393 41.785L86.9676 41.8462C86.9205 42.0693 86.8239 42.2641 86.6778 42.4306C86.5333 42.5955 86.3464 42.7243 86.117 42.817C85.8893 42.9081 85.6262 42.9536 85.3277 42.9536Z" fill="#E3E3E3"/>
<path d="M80.5418 40.7912V42.8835H79.5381V38.0581H80.5135V39.903H80.5559C80.6376 39.6893 80.7696 39.522 80.9518 39.4011C81.134 39.2786 81.3625 39.2173 81.6374 39.2173C81.8887 39.2173 82.1078 39.2723 82.2948 39.3823C82.4832 39.4906 82.6293 39.6469 82.733 39.8511C82.8382 40.0537 82.8901 40.2964 82.8885 40.5792V42.8835H81.8848V40.7582C81.8864 40.5352 81.8298 40.3616 81.7152 40.2375C81.6021 40.1134 81.4434 40.0514 81.2392 40.0514C81.1026 40.0514 80.9816 40.0804 80.8764 40.1386C80.7727 40.1967 80.691 40.2815 80.6313 40.393C80.5732 40.503 80.5434 40.6357 80.5418 40.7912Z" fill="#E3E3E3"/>
<path d="M78.8065 39.265V40.019H76.6271V39.265H78.8065ZM77.1219 38.3979H78.1256V41.7719C78.1256 41.8646 78.1397 41.9369 78.168 41.9887C78.1963 42.039 78.2355 42.0743 78.2858 42.0947C78.3376 42.1151 78.3973 42.1253 78.4649 42.1253C78.512 42.1253 78.5591 42.1214 78.6062 42.1136C78.6533 42.1041 78.6895 42.0971 78.7146 42.0924L78.8725 42.8393C78.8222 42.855 78.7515 42.873 78.6604 42.8934C78.5693 42.9154 78.4586 42.9288 78.3282 42.9335C78.0863 42.9429 77.8743 42.9107 77.692 42.8369C77.5114 42.7631 77.3708 42.6484 77.2703 42.4929C77.1698 42.3374 77.1203 42.1411 77.1219 41.9039V38.3979Z" fill="#E3E3E3"/>
</svg>
