<svg width="29" height="29" viewBox="0 0 29 29" fill="none" xmlns="http://www.w3.org/2000/svg">
<path d="M3.41669 14.1209C3.41669 8.8962 3.41669 6.28384 5.0398 4.66071C6.66293 3.0376 9.27529 3.0376 14.5 3.0376C19.7247 3.0376 22.3371 3.0376 23.9603 4.66071C25.5834 6.28384 25.5834 8.8962 25.5834 14.1209C25.5834 19.3456 25.5834 21.958 23.9603 23.5812C22.3371 25.2043 19.7247 25.2043 14.5 25.2043C9.27529 25.2043 6.66293 25.2043 5.0398 23.5812C3.41669 21.958 3.41669 19.3456 3.41669 14.1209Z" stroke="#C5C5C5" stroke-width="1.85625" stroke-linejoin="round"/>
<path d="M12.7919 12.9628C11.8352 12.8276 9.65446 13.0514 8.58515 15.0287C7.51583 17.0058 8.59354 19.0637 9.26605 19.8455C9.93016 20.5769 12.041 21.9619 14.28 20.6096C14.835 20.2745 15.5263 20.0244 16.3107 17.4053L16.2195 7.09912C16.0681 8.23398 17.3217 10.8958 20.891 11.2107" stroke="#C5C5C5" stroke-width="1.85625" stroke-linecap="round" stroke-linejoin="round"/>
</svg>
